<?xml version="1.0" encoding="UTF-8" standalone="no"?>
<!DOCTYPE svg PUBLIC "-//W3C//DTD SVG 1.1//EN"
 "http://www.w3.org/Graphics/SVG/1.1/DTD/svg11.dtd">
<!-- Generated by graphviz version 2.44.0 (0)
 -->
<!-- Pages: 1 -->
<svg width="3000pt" height="764pt"
 viewBox="0.00 0.00 2999.82 764.00" xmlns="http://www.w3.org/2000/svg" xmlns:xlink="http://www.w3.org/1999/xlink">
<g id="graph0" class="graph" transform="scale(1 1) rotate(0) translate(4 760)">
<polygon fill="white" stroke="transparent" points="-4,4 -4,-760 2995.82,-760 2995.82,4 -4,4"/>
<!-- [root] module.sandbox_vpc.aws_eip.nat_eip (expand) -->
<g id="node1" class="node">
<title>[root] module.sandbox_vpc.aws_eip.nat_eip (expand)</title>
<polygon fill="none" stroke="black" points="2227.35,-324 1949.35,-324 1949.35,-288 2227.35,-288 2227.35,-324"/>
<text text-anchor="middle" x="2088.35" y="-302.3" font-family="Times-Roman" font-size="14.00">module.sandbox_vpc.aws_eip.nat_eip</text>
</g>
<!-- [root] module.sandbox_vpc.aws_subnet.public_subnets (expand) -->
<g id="node9" class="node">
<title>[root] module.sandbox_vpc.aws_subnet.public_subnets (expand)</title>
<polygon fill="none" stroke="black" points="1633.85,-252 1274.85,-252 1274.85,-216 1633.85,-216 1633.85,-252"/>
<text text-anchor="middle" x="1454.35" y="-230.3" font-family="Times-Roman" font-size="14.00">module.sandbox_vpc.aws_subnet.public_subnets</text>
</g>
<!-- [root] module.sandbox_vpc.aws_eip.nat_eip (expand)&#45;&gt;[root] module.sandbox_vpc.aws_subnet.public_subnets (expand) -->
<g id="edge8" class="edge">
<title>[root] module.sandbox_vpc.aws_eip.nat_eip (expand)&#45;&gt;[root] module.sandbox_vpc.aws_subnet.public_subnets (expand)</title>
<path fill="none" stroke="black" d="M1949.22,-289.64C1851.77,-278.88 1721.16,-264.46 1618.59,-253.13"/>
<polygon fill="black" stroke="black" points="1618.76,-249.63 1608.44,-252.01 1618,-256.59 1618.76,-249.63"/>
</g>
<!-- [root] module.sandbox_vpc.aws_internet_gateway.internet_gw (expand) -->
<g id="node2" class="node">
<title>[root] module.sandbox_vpc.aws_internet_gateway.internet_gw (expand)</title>
<polygon fill="none" stroke="black" points="1339.85,-396 932.85,-396 932.85,-360 1339.85,-360 1339.85,-396"/>
<text text-anchor="middle" x="1136.35" y="-374.3" font-family="Times-Roman" font-size="14.00">module.sandbox_vpc.aws_internet_gateway.internet_gw</text>
</g>
<!-- [root] module.sandbox_vpc.aws_vpc.application_vpc (expand) -->
<g id="node10" class="node">
<title>[root] module.sandbox_vpc.aws_vpc.application_vpc (expand)</title>
<polygon fill="none" stroke="black" points="1122.35,-180 784.35,-180 784.35,-144 1122.35,-144 1122.35,-180"/>
<text text-anchor="middle" x="953.35" y="-158.3" font-family="Times-Roman" font-size="14.00">module.sandbox_vpc.aws_vpc.application_vpc</text>
</g>
<!-- [root] module.sandbox_vpc.aws_internet_gateway.internet_gw (expand)&#45;&gt;[root] module.sandbox_vpc.aws_vpc.application_vpc (expand) -->
<g id="edge9" class="edge">
<title>[root] module.sandbox_vpc.aws_internet_gateway.internet_gw (expand)&#45;&gt;[root] module.sandbox_vpc.aws_vpc.application_vpc (expand)</title>
<path fill="none" stroke="black" d="M1121.69,-359.85C1089.43,-322.13 1012.21,-231.83 974.62,-187.88"/>
<polygon fill="black" stroke="black" points="977.25,-185.56 968.09,-180.23 971.93,-190.11 977.25,-185.56"/>
</g>
<!-- [root] module.sandbox_vpc.aws_nat_gateway.nat_gw (expand) -->
<g id="node3" class="node">
<title>[root] module.sandbox_vpc.aws_nat_gateway.nat_gw (expand)</title>
<polygon fill="none" stroke="black" points="2412.35,-396 2070.35,-396 2070.35,-360 2412.35,-360 2412.35,-396"/>
<text text-anchor="middle" x="2241.35" y="-374.3" font-family="Times-Roman" font-size="14.00">module.sandbox_vpc.aws_nat_gateway.nat_gw</text>
</g>
<!-- [root] module.sandbox_vpc.aws_nat_gateway.nat_gw (expand)&#45;&gt;[root] module.sandbox_vpc.aws_eip.nat_eip (expand) -->
<g id="edge10" class="edge">
<title>[root] module.sandbox_vpc.aws_nat_gateway.nat_gw (expand)&#45;&gt;[root] module.sandbox_vpc.aws_eip.nat_eip (expand)</title>
<path fill="none" stroke="black" d="M2203.92,-359.88C2183.1,-350.35 2157,-338.41 2134.87,-328.28"/>
<polygon fill="black" stroke="black" points="2136.21,-325.05 2125.66,-324.07 2133.3,-331.41 2136.21,-325.05"/>
</g>
<!-- [root] module.sandbox_vpc.aws_route_table.lambda_function_rt (expand) -->
<g id="node4" class="node">
<title>[root] module.sandbox_vpc.aws_route_table.lambda_function_rt (expand)</title>
<polygon fill="none" stroke="black" points="2365.85,-468 1948.85,-468 1948.85,-432 2365.85,-432 2365.85,-468"/>
<text text-anchor="middle" x="2157.35" y="-446.3" font-family="Times-Roman" font-size="14.00">module.sandbox_vpc.aws_route_table.lambda_function_rt</text>
</g>
<!-- [root] module.sandbox_vpc.aws_route_table.lambda_function_rt (expand)&#45;&gt;[root] module.sandbox_vpc.aws_nat_gateway.nat_gw (expand) -->
<g id="edge11" class="edge">
<title>[root] module.sandbox_vpc.aws_route_table.lambda_function_rt (expand)&#45;&gt;[root] module.sandbox_vpc.aws_nat_gateway.nat_gw (expand)</title>
<path fill="none" stroke="black" d="M2178.12,-431.7C2188.59,-422.97 2201.46,-412.24 2212.85,-402.75"/>
<polygon fill="black" stroke="black" points="2215.39,-405.19 2220.83,-396.1 2210.9,-399.82 2215.39,-405.19"/>
</g>
<!-- [root] module.sandbox_vpc.aws_route_table.public_rt (expand) -->
<g id="node5" class="node">
<title>[root] module.sandbox_vpc.aws_route_table.public_rt (expand)</title>
<polygon fill="none" stroke="black" points="1443.35,-468 1099.35,-468 1099.35,-432 1443.35,-432 1443.35,-468"/>
<text text-anchor="middle" x="1271.35" y="-446.3" font-family="Times-Roman" font-size="14.00">module.sandbox_vpc.aws_route_table.public_rt</text>
</g>
<!-- [root] module.sandbox_vpc.aws_route_table.public_rt (expand)&#45;&gt;[root] module.sandbox_vpc.aws_internet_gateway.internet_gw (expand) -->
<g id="edge12" class="edge">
<title>[root] module.sandbox_vpc.aws_route_table.public_rt (expand)&#45;&gt;[root] module.sandbox_vpc.aws_internet_gateway.internet_gw (expand)</title>
<path fill="none" stroke="black" d="M1238.33,-431.88C1220.27,-422.51 1197.71,-410.81 1178.4,-400.8"/>
<polygon fill="black" stroke="black" points="1179.99,-397.69 1169.5,-396.19 1176.77,-403.9 1179.99,-397.69"/>
</g>
<!-- [root] module.sandbox_vpc.aws_route_table_association.private_rta (expand) -->
<g id="node6" class="node">
<title>[root] module.sandbox_vpc.aws_route_table_association.private_rta (expand)</title>
<polygon fill="none" stroke="black" points="2314.85,-540 1871.85,-540 1871.85,-504 2314.85,-504 2314.85,-540"/>
<text text-anchor="middle" x="2093.35" y="-518.3" font-family="Times-Roman" font-size="14.00">module.sandbox_vpc.aws_route_table_association.private_rta</text>
</g>
<!-- [root] module.sandbox_vpc.aws_route_table_association.private_rta (expand)&#45;&gt;[root] module.sandbox_vpc.aws_route_table.lambda_function_rt (expand) -->
<g id="edge13" class="edge">
<title>[root] module.sandbox_vpc.aws_route_table_association.private_rta (expand)&#45;&gt;[root] module.sandbox_vpc.aws_route_table.lambda_function_rt (expand)</title>
<path fill="none" stroke="black" d="M2109.17,-503.7C2116.92,-495.22 2126.39,-484.86 2134.88,-475.58"/>
<polygon fill="black" stroke="black" points="2137.55,-477.85 2141.71,-468.1 2132.38,-473.12 2137.55,-477.85"/>
</g>
<!-- [root] module.sandbox_vpc.aws_subnet.private_subnets (expand) -->
<g id="node8" class="node">
<title>[root] module.sandbox_vpc.aws_subnet.private_subnets (expand)</title>
<polygon fill="none" stroke="black" points="2243.85,-252 1878.85,-252 1878.85,-216 2243.85,-216 2243.85,-252"/>
<text text-anchor="middle" x="2061.35" y="-230.3" font-family="Times-Roman" font-size="14.00">module.sandbox_vpc.aws_subnet.private_subnets</text>
</g>
<!-- [root] module.sandbox_vpc.aws_route_table_association.private_rta (expand)&#45;&gt;[root] module.sandbox_vpc.aws_subnet.private_subnets (expand) -->
<g id="edge14" class="edge">
<title>[root] module.sandbox_vpc.aws_route_table_association.private_rta (expand)&#45;&gt;[root] module.sandbox_vpc.aws_subnet.private_subnets (expand)</title>
<path fill="none" stroke="black" d="M2241.36,-503.97C2297.14,-495.33 2352.6,-483.37 2375.35,-468 2418.59,-438.8 2450.8,-403.07 2421.35,-360 2382.28,-302.87 2315.04,-271.56 2249.16,-254.51"/>
<polygon fill="black" stroke="black" points="2250,-251.11 2239.45,-252.09 2248.31,-257.9 2250,-251.11"/>
</g>
<!-- [root] module.sandbox_vpc.aws_route_table_association.public_rta (expand) -->
<g id="node7" class="node">
<title>[root] module.sandbox_vpc.aws_route_table_association.public_rta (expand)</title>
<polygon fill="none" stroke="black" points="1689.35,-540 1253.35,-540 1253.35,-504 1689.35,-504 1689.35,-540"/>
<text text-anchor="middle" x="1471.35" y="-518.3" font-family="Times-Roman" font-size="14.00">module.sandbox_vpc.aws_route_table_association.public_rta</text>
</g>
<!-- [root] module.sandbox_vpc.aws_route_table_association.public_rta (expand)&#45;&gt;[root] module.sandbox_vpc.aws_route_table.public_rt (expand) -->
<g id="edge15" class="edge">
<title>[root] module.sandbox_vpc.aws_route_table_association.public_rta (expand)&#45;&gt;[root] module.sandbox_vpc.aws_route_table.public_rt (expand)</title>
<path fill="none" stroke="black" d="M1422.68,-503.97C1394.74,-494.19 1359.46,-481.84 1329.99,-471.52"/>
<polygon fill="black" stroke="black" points="1330.83,-468.11 1320.24,-468.11 1328.52,-474.72 1330.83,-468.11"/>
</g>
<!-- [root] module.sandbox_vpc.aws_route_table_association.public_rta (expand)&#45;&gt;[root] module.sandbox_vpc.aws_subnet.public_subnets (expand) -->
<g id="edge16" class="edge">
<title>[root] module.sandbox_vpc.aws_route_table_association.public_rta (expand)&#45;&gt;[root] module.sandbox_vpc.aws_subnet.public_subnets (expand)</title>
<path fill="none" stroke="black" d="M1470.34,-503.97C1467.51,-456.29 1459.47,-321.18 1455.99,-262.63"/>
<polygon fill="black" stroke="black" points="1459.47,-262.08 1455.38,-252.31 1452.48,-262.5 1459.47,-262.08"/>
</g>
<!-- [root] module.sandbox_vpc.aws_subnet.private_subnets (expand)&#45;&gt;[root] module.sandbox_vpc.aws_vpc.application_vpc (expand) -->
<g id="edge17" class="edge">
<title>[root] module.sandbox_vpc.aws_subnet.private_subnets (expand)&#45;&gt;[root] module.sandbox_vpc.aws_vpc.application_vpc (expand)</title>
<path fill="none" stroke="black" d="M1878.57,-224.65C1693.32,-215.71 1398.17,-200.16 1132.68,-180.08"/>
<polygon fill="black" stroke="black" points="1132.69,-176.58 1122.46,-179.31 1132.16,-183.56 1132.69,-176.58"/>
</g>
<!-- [root] module.sandbox_vpc.var.availability_zones (expand) -->
<g id="node24" class="node">
<title>[root] module.sandbox_vpc.var.availability_zones (expand)</title>
<ellipse fill="none" stroke="black" cx="2061.35" cy="-162" rx="275.65" ry="18"/>
<text text-anchor="middle" x="2061.35" y="-158.3" font-family="Times-Roman" font-size="14.00">[root] module.sandbox_vpc.var.availability_zones (expand)</text>
</g>
<!-- [root] module.sandbox_vpc.aws_subnet.private_subnets (expand)&#45;&gt;[root] module.sandbox_vpc.var.availability_zones (expand) -->
<g id="edge18" class="edge">
<title>[root] module.sandbox_vpc.aws_subnet.private_subnets (expand)&#45;&gt;[root] module.sandbox_vpc.var.availability_zones (expand)</title>
<path fill="none" stroke="black" d="M2061.35,-215.7C2061.35,-207.98 2061.35,-198.71 2061.35,-190.11"/>
<polygon fill="black" stroke="black" points="2064.85,-190.1 2061.35,-180.1 2057.85,-190.1 2064.85,-190.1"/>
</g>
<!-- [root] module.sandbox_vpc.var.private_subnet_cidr_blocks (expand) -->
<g id="node25" class="node">
<title>[root] module.sandbox_vpc.var.private_subnet_cidr_blocks (expand)</title>
<ellipse fill="none" stroke="black" cx="2673.35" cy="-162" rx="318.44" ry="18"/>
<text text-anchor="middle" x="2673.35" y="-158.3" font-family="Times-Roman" font-size="14.00">[root] module.sandbox_vpc.var.private_subnet_cidr_blocks (expand)</text>
</g>
<!-- [root] module.sandbox_vpc.aws_subnet.private_subnets (expand)&#45;&gt;[root] module.sandbox_vpc.var.private_subnet_cidr_blocks (expand) -->
<g id="edge19" class="edge">
<title>[root] module.sandbox_vpc.aws_subnet.private_subnets (expand)&#45;&gt;[root] module.sandbox_vpc.var.private_subnet_cidr_blocks (expand)</title>
<path fill="none" stroke="black" d="M2210.28,-215.97C2307.24,-204.87 2433.08,-190.48 2529.09,-179.5"/>
<polygon fill="black" stroke="black" points="2529.64,-182.96 2539.17,-178.35 2528.84,-176.01 2529.64,-182.96"/>
</g>
<!-- [root] module.sandbox_vpc.aws_subnet.public_subnets (expand)&#45;&gt;[root] module.sandbox_vpc.aws_vpc.application_vpc (expand) -->
<g id="edge20" class="edge">
<title>[root] module.sandbox_vpc.aws_subnet.public_subnets (expand)&#45;&gt;[root] module.sandbox_vpc.aws_vpc.application_vpc (expand)</title>
<path fill="none" stroke="black" d="M1332.43,-215.97C1257.73,-205.53 1162.09,-192.17 1085.57,-181.47"/>
<polygon fill="black" stroke="black" points="1085.77,-177.97 1075.38,-180.05 1084.8,-184.9 1085.77,-177.97"/>
</g>
<!-- [root] module.sandbox_vpc.aws_subnet.public_subnets (expand)&#45;&gt;[root] module.sandbox_vpc.var.availability_zones (expand) -->
<g id="edge21" class="edge">
<title>[root] module.sandbox_vpc.aws_subnet.public_subnets (expand)&#45;&gt;[root] module.sandbox_vpc.var.availability_zones (expand)</title>
<path fill="none" stroke="black" d="M1602.06,-215.97C1699.51,-204.73 1826.34,-190.1 1922.03,-179.07"/>
<polygon fill="black" stroke="black" points="1922.54,-182.53 1932.07,-177.91 1921.74,-175.58 1922.54,-182.53"/>
</g>
<!-- [root] module.sandbox_vpc.var.public_subnet_cidr_blocks (expand) -->
<g id="node26" class="node">
<title>[root] module.sandbox_vpc.var.public_subnet_cidr_blocks (expand)</title>
<ellipse fill="none" stroke="black" cx="1454.35" cy="-162" rx="313.84" ry="18"/>
<text text-anchor="middle" x="1454.35" y="-158.3" font-family="Times-Roman" font-size="14.00">[root] module.sandbox_vpc.var.public_subnet_cidr_blocks (expand)</text>
</g>
<!-- [root] module.sandbox_vpc.aws_subnet.public_subnets (expand)&#45;&gt;[root] module.sandbox_vpc.var.public_subnet_cidr_blocks (expand) -->
<g id="edge22" class="edge">
<title>[root] module.sandbox_vpc.aws_subnet.public_subnets (expand)&#45;&gt;[root] module.sandbox_vpc.var.public_subnet_cidr_blocks (expand)</title>
<path fill="none" stroke="black" d="M1454.35,-215.7C1454.35,-207.98 1454.35,-198.71 1454.35,-190.11"/>
<polygon fill="black" stroke="black" points="1457.85,-190.1 1454.35,-180.1 1450.85,-190.1 1457.85,-190.1"/>
</g>
<!-- [root] provider[&quot;registry.terraform.io/hashicorp/aws&quot;] -->
<g id="node12" class="node">
<title>[root] provider[&quot;registry.terraform.io/hashicorp/aws&quot;]</title>
<polygon fill="none" stroke="black" points="314.35,-108 0.15,-90 314.35,-72 628.56,-90 314.35,-108"/>
<text text-anchor="middle" x="314.35" y="-86.3" font-family="Times-Roman" font-size="14.00">provider[&quot;registry.terraform.io/hashicorp/aws&quot;]</text>
</g>
<!-- [root] module.sandbox_vpc.aws_vpc.application_vpc (expand)&#45;&gt;[root] provider[&quot;registry.terraform.io/hashicorp/aws&quot;] -->
<g id="edge25" class="edge">
<title>[root] module.sandbox_vpc.aws_vpc.application_vpc (expand)&#45;&gt;[root] provider[&quot;registry.terraform.io/hashicorp/aws&quot;]</title>
<path fill="none" stroke="black" d="M797.85,-143.97C683.09,-131.39 529.59,-114.58 426.62,-103.3"/>
<polygon fill="black" stroke="black" points="426.82,-99.8 416.5,-102.19 426.06,-106.76 426.82,-99.8"/>
</g>
<!-- [root] module.sandbox_vpc.var.environment (expand) -->
<g id="node27" class="node">
<title>[root] module.sandbox_vpc.var.environment (expand)</title>
<ellipse fill="none" stroke="black" cx="900.35" cy="-90" rx="253.46" ry="18"/>
<text text-anchor="middle" x="900.35" y="-86.3" font-family="Times-Roman" font-size="14.00">[root] module.sandbox_vpc.var.environment (expand)</text>
</g>
<!-- [root] module.sandbox_vpc.aws_vpc.application_vpc (expand)&#45;&gt;[root] module.sandbox_vpc.var.environment (expand) -->
<g id="edge23" class="edge">
<title>[root] module.sandbox_vpc.aws_vpc.application_vpc (expand)&#45;&gt;[root] module.sandbox_vpc.var.environment (expand)</title>
<path fill="none" stroke="black" d="M940.25,-143.7C933.96,-135.39 926.3,-125.28 919.39,-116.14"/>
<polygon fill="black" stroke="black" points="922.13,-113.96 913.3,-108.1 916.55,-118.19 922.13,-113.96"/>
</g>
<!-- [root] module.sandbox_vpc.var.vpc_cidr_block (expand) -->
<g id="node28" class="node">
<title>[root] module.sandbox_vpc.var.vpc_cidr_block (expand)</title>
<ellipse fill="none" stroke="black" cx="1434.35" cy="-90" rx="262.65" ry="18"/>
<text text-anchor="middle" x="1434.35" y="-86.3" font-family="Times-Roman" font-size="14.00">[root] module.sandbox_vpc.var.vpc_cidr_block (expand)</text>
</g>
<!-- [root] module.sandbox_vpc.aws_vpc.application_vpc (expand)&#45;&gt;[root] module.sandbox_vpc.var.vpc_cidr_block (expand) -->
<g id="edge24" class="edge">
<title>[root] module.sandbox_vpc.aws_vpc.application_vpc (expand)&#45;&gt;[root] module.sandbox_vpc.var.vpc_cidr_block (expand)</title>
<path fill="none" stroke="black" d="M1070.4,-143.97C1145.58,-133.02 1242.85,-118.87 1317.91,-107.95"/>
<polygon fill="black" stroke="black" points="1318.49,-111.4 1327.88,-106.49 1317.48,-104.47 1318.49,-111.4"/>
</g>
<!-- [root] output.vpc_id -->
<g id="node11" class="node">
<title>[root] output.vpc_id</title>
<polygon fill="none" stroke="black" points="1153.85,-612 1048.85,-612 1048.85,-576 1159.85,-576 1159.85,-606 1153.85,-612"/>
<polyline fill="none" stroke="black" points="1153.85,-612 1153.85,-606 "/>
<polyline fill="none" stroke="black" points="1159.85,-606 1153.85,-606 "/>
<text text-anchor="middle" x="1104.35" y="-590.3" font-family="Times-Roman" font-size="14.00">output.vpc_id</text>
</g>
<!-- [root] module.sandbox_vpc.output.id (expand) -->
<g id="node21" class="node">
<title>[root] module.sandbox_vpc.output.id (expand)</title>
<ellipse fill="none" stroke="black" cx="976.35" cy="-522" rx="220.96" ry="18"/>
<text text-anchor="middle" x="976.35" y="-518.3" font-family="Times-Roman" font-size="14.00">[root] module.sandbox_vpc.output.id (expand)</text>
</g>
<!-- [root] output.vpc_id&#45;&gt;[root] module.sandbox_vpc.output.id (expand) -->
<g id="edge38" class="edge">
<title>[root] output.vpc_id&#45;&gt;[root] module.sandbox_vpc.output.id (expand)</title>
<path fill="none" stroke="black" d="M1073.04,-575.88C1055.94,-566.53 1034.6,-554.85 1016.31,-544.85"/>
<polygon fill="black" stroke="black" points="1017.79,-541.67 1007.34,-539.95 1014.44,-547.82 1017.79,-541.67"/>
</g>
<!-- [root] var.aws_account_ids -->
<g id="node14" class="node">
<title>[root] var.aws_account_ids</title>
<polygon fill="none" stroke="black" points="309.35,-36 157.35,-36 157.35,0 315.35,0 315.35,-30 309.35,-36"/>
<polyline fill="none" stroke="black" points="309.35,-36 309.35,-30 "/>
<polyline fill="none" stroke="black" points="315.35,-30 309.35,-30 "/>
<text text-anchor="middle" x="236.35" y="-14.3" font-family="Times-Roman" font-size="14.00">var.aws_account_ids</text>
</g>
<!-- [root] provider[&quot;registry.terraform.io/hashicorp/aws&quot;]&#45;&gt;[root] var.aws_account_ids -->
<g id="edge41" class="edge">
<title>[root] provider[&quot;registry.terraform.io/hashicorp/aws&quot;]&#45;&gt;[root] var.aws_account_ids</title>
<path fill="none" stroke="black" d="M296.26,-72.76C286.41,-63.92 274.03,-52.82 263.09,-43"/>
<polygon fill="black" stroke="black" points="265.21,-40.2 255.43,-36.12 260.54,-45.41 265.21,-40.2"/>
</g>
<!-- [root] var.aws_region -->
<g id="node15" class="node">
<title>[root] var.aws_region</title>
<polygon fill="none" stroke="black" points="446.85,-36 333.85,-36 333.85,0 452.85,0 452.85,-30 446.85,-36"/>
<polyline fill="none" stroke="black" points="446.85,-36 446.85,-30 "/>
<polyline fill="none" stroke="black" points="452.85,-30 446.85,-30 "/>
<text text-anchor="middle" x="393.35" y="-14.3" font-family="Times-Roman" font-size="14.00">var.aws_region</text>
</g>
<!-- [root] provider[&quot;registry.terraform.io/hashicorp/aws&quot;]&#45;&gt;[root] var.aws_region -->
<g id="edge42" class="edge">
<title>[root] provider[&quot;registry.terraform.io/hashicorp/aws&quot;]&#45;&gt;[root] var.aws_region</title>
<path fill="none" stroke="black" d="M332.67,-72.76C342.65,-63.92 355.19,-52.82 366.27,-43"/>
<polygon fill="black" stroke="black" points="368.86,-45.38 374.03,-36.12 364.22,-40.14 368.86,-45.38"/>
</g>
<!-- [root] var.availability_zones -->
<g id="node13" class="node">
<title>[root] var.availability_zones</title>
<polygon fill="none" stroke="black" points="2190.35,-108 2032.35,-108 2032.35,-72 2196.35,-72 2196.35,-102 2190.35,-108"/>
<polyline fill="none" stroke="black" points="2190.35,-108 2190.35,-102 "/>
<polyline fill="none" stroke="black" points="2196.35,-102 2190.35,-102 "/>
<text text-anchor="middle" x="2114.35" y="-86.3" font-family="Times-Roman" font-size="14.00">var.availability_zones</text>
</g>
<!-- [root] var.environment -->
<g id="node16" class="node">
<title>[root] var.environment</title>
<polygon fill="none" stroke="black" points="959.35,-36 835.35,-36 835.35,0 965.35,0 965.35,-30 959.35,-36"/>
<polyline fill="none" stroke="black" points="959.35,-36 959.35,-30 "/>
<polyline fill="none" stroke="black" points="965.35,-30 959.35,-30 "/>
<text text-anchor="middle" x="900.35" y="-14.3" font-family="Times-Roman" font-size="14.00">var.environment</text>
</g>
<!-- [root] var.private_subnet_cidr_blocks -->
<g id="node17" class="node">
<title>[root] var.private_subnet_cidr_blocks</title>
<polygon fill="none" stroke="black" points="2782.35,-108 2558.35,-108 2558.35,-72 2788.35,-72 2788.35,-102 2782.35,-108"/>
<polyline fill="none" stroke="black" points="2782.35,-108 2782.35,-102 "/>
<polyline fill="none" stroke="black" points="2788.35,-102 2782.35,-102 "/>
<text text-anchor="middle" x="2673.35" y="-86.3" font-family="Times-Roman" font-size="14.00">var.private_subnet_cidr_blocks</text>
</g>
<!-- [root] var.public_subnet_cidr_blocks -->
<g id="node18" class="node">
<title>[root] var.public_subnet_cidr_blocks</title>
<polygon fill="none" stroke="black" points="1931.85,-108 1714.85,-108 1714.85,-72 1937.85,-72 1937.85,-102 1931.85,-108"/>
<polyline fill="none" stroke="black" points="1931.85,-108 1931.85,-102 "/>
<polyline fill="none" stroke="black" points="1937.85,-102 1931.85,-102 "/>
<text text-anchor="middle" x="1826.35" y="-86.3" font-family="Times-Roman" font-size="14.00">var.public_subnet_cidr_blocks</text>
</g>
<!-- [root] meta.count&#45;boundary (EachMode fixup) -->
<g id="node19" class="node">
<title>[root] meta.count&#45;boundary (EachMode fixup)</title>
<ellipse fill="none" stroke="black" cx="1348.35" cy="-666" rx="217.96" ry="18"/>
<text text-anchor="middle" x="1348.35" y="-662.3" font-family="Times-Roman" font-size="14.00">[root] meta.count&#45;boundary (EachMode fixup)</text>
</g>
<!-- [root] meta.count&#45;boundary (EachMode fixup)&#45;&gt;[root] output.vpc_id -->
<g id="edge2" class="edge">
<title>[root] meta.count&#45;boundary (EachMode fixup)&#45;&gt;[root] output.vpc_id</title>
<path fill="none" stroke="black" d="M1291.14,-648.59C1254.81,-638.16 1207.68,-624.64 1169.84,-613.79"/>
<polygon fill="black" stroke="black" points="1170.52,-610.34 1159.94,-610.95 1168.59,-617.07 1170.52,-610.34"/>
</g>
<!-- [root] module.sandbox_vpc (close) -->
<g id="node20" class="node">
<title>[root] module.sandbox_vpc (close)</title>
<ellipse fill="none" stroke="black" cx="1348.35" cy="-594" rx="166.27" ry="18"/>
<text text-anchor="middle" x="1348.35" y="-590.3" font-family="Times-Roman" font-size="14.00">[root] module.sandbox_vpc (close)</text>
</g>
<!-- [root] meta.count&#45;boundary (EachMode fixup)&#45;&gt;[root] module.sandbox_vpc (close) -->
<g id="edge1" class="edge">
<title>[root] meta.count&#45;boundary (EachMode fixup)&#45;&gt;[root] module.sandbox_vpc (close)</title>
<path fill="none" stroke="black" d="M1348.35,-647.7C1348.35,-639.98 1348.35,-630.71 1348.35,-622.11"/>
<polygon fill="black" stroke="black" points="1351.85,-622.1 1348.35,-612.1 1344.85,-622.1 1351.85,-622.1"/>
</g>
<!-- [root] module.sandbox_vpc (close)&#45;&gt;[root] module.sandbox_vpc.aws_route_table_association.private_rta (expand) -->
<g id="edge3" class="edge">
<title>[root] module.sandbox_vpc (close)&#45;&gt;[root] module.sandbox_vpc.aws_route_table_association.private_rta (expand)</title>
<path fill="none" stroke="black" d="M1467.43,-581.37C1486.14,-579.56 1505.27,-577.72 1523.35,-576 1647.96,-564.15 1787.92,-551.14 1897.97,-540.97"/>
<polygon fill="black" stroke="black" points="1898.55,-544.43 1908.18,-540.02 1897.9,-537.46 1898.55,-544.43"/>
</g>
<!-- [root] module.sandbox_vpc (close)&#45;&gt;[root] module.sandbox_vpc.aws_route_table_association.public_rta (expand) -->
<g id="edge4" class="edge">
<title>[root] module.sandbox_vpc (close)&#45;&gt;[root] module.sandbox_vpc.aws_route_table_association.public_rta (expand)</title>
<path fill="none" stroke="black" d="M1377.81,-576.23C1394.15,-566.93 1414.68,-555.25 1432.34,-545.2"/>
<polygon fill="black" stroke="black" points="1434.32,-548.1 1441.28,-540.12 1430.85,-542.02 1434.32,-548.1"/>
</g>
<!-- [root] module.sandbox_vpc (close)&#45;&gt;[root] module.sandbox_vpc.output.id (expand) -->
<g id="edge5" class="edge">
<title>[root] module.sandbox_vpc (close)&#45;&gt;[root] module.sandbox_vpc.output.id (expand)</title>
<path fill="none" stroke="black" d="M1269,-578.07C1210.69,-567.1 1131.25,-552.15 1069.85,-540.59"/>
<polygon fill="black" stroke="black" points="1070.25,-537.11 1059.77,-538.7 1068.95,-543.99 1070.25,-537.11"/>
</g>
<!-- [root] module.sandbox_vpc.output.private_subnets (expand) -->
<g id="node22" class="node">
<title>[root] module.sandbox_vpc.output.private_subnets (expand)</title>
<ellipse fill="none" stroke="black" cx="1767.35" cy="-378" rx="284.85" ry="18"/>
<text text-anchor="middle" x="1767.35" y="-374.3" font-family="Times-Roman" font-size="14.00">[root] module.sandbox_vpc.output.private_subnets (expand)</text>
</g>
<!-- [root] module.sandbox_vpc (close)&#45;&gt;[root] module.sandbox_vpc.output.private_subnets (expand) -->
<g id="edge6" class="edge">
<title>[root] module.sandbox_vpc (close)&#45;&gt;[root] module.sandbox_vpc.output.private_subnets (expand)</title>
<path fill="none" stroke="black" d="M1464.63,-581.04C1559.16,-570.4 1679.81,-554.33 1698.35,-540 1740.94,-507.07 1757.62,-442.7 1763.86,-406.11"/>
<polygon fill="black" stroke="black" points="1767.33,-406.57 1765.42,-396.15 1760.42,-405.49 1767.33,-406.57"/>
</g>
<!-- [root] module.sandbox_vpc.output.public_subnets (expand) -->
<g id="node23" class="node">
<title>[root] module.sandbox_vpc.output.public_subnets (expand)</title>
<ellipse fill="none" stroke="black" cx="801.35" cy="-450" rx="280.25" ry="18"/>
<text text-anchor="middle" x="801.35" y="-446.3" font-family="Times-Roman" font-size="14.00">[root] module.sandbox_vpc.output.public_subnets (expand)</text>
</g>
<!-- [root] module.sandbox_vpc (close)&#45;&gt;[root] module.sandbox_vpc.output.public_subnets (expand) -->
<g id="edge7" class="edge">
<title>[root] module.sandbox_vpc (close)&#45;&gt;[root] module.sandbox_vpc.output.public_subnets (expand)</title>
<path fill="none" stroke="black" d="M1309.3,-576.36C1289.11,-566.97 1264.55,-554.26 1244.35,-540 1225.35,-526.58 1227.36,-514 1206.35,-504 1168.28,-485.88 1078.19,-473.16 992.62,-464.73"/>
<polygon fill="black" stroke="black" points="992.77,-461.23 982.48,-463.75 992.1,-468.19 992.77,-461.23"/>
</g>
<!-- [root] module.sandbox_vpc.output.id (expand)&#45;&gt;[root] module.sandbox_vpc.aws_vpc.application_vpc (expand) -->
<g id="edge26" class="edge">
<title>[root] module.sandbox_vpc.output.id (expand)&#45;&gt;[root] module.sandbox_vpc.aws_vpc.application_vpc (expand)</title>
<path fill="none" stroke="black" d="M802.26,-510.87C679.83,-502.11 534.09,-487.74 512.35,-468 482.4,-440.81 493.35,-419.45 493.35,-379 493.35,-379 493.35,-379 493.35,-305 493.35,-240.13 662.51,-201.71 795.66,-181.53"/>
<polygon fill="black" stroke="black" points="796.22,-184.98 805.59,-180.05 795.18,-178.06 796.22,-184.98"/>
</g>
<!-- [root] module.sandbox_vpc.output.private_subnets (expand)&#45;&gt;[root] module.sandbox_vpc.aws_subnet.private_subnets (expand) -->
<g id="edge27" class="edge">
<title>[root] module.sandbox_vpc.output.private_subnets (expand)&#45;&gt;[root] module.sandbox_vpc.aws_subnet.private_subnets (expand)</title>
<path fill="none" stroke="black" d="M1798.94,-360C1833.4,-341.63 1890.33,-311.79 1940.35,-288 1963.44,-277.02 1989.37,-265.55 2011.29,-256.1"/>
<polygon fill="black" stroke="black" points="2012.93,-259.2 2020.73,-252.04 2010.16,-252.77 2012.93,-259.2"/>
</g>
<!-- [root] module.sandbox_vpc.output.public_subnets (expand)&#45;&gt;[root] module.sandbox_vpc.aws_subnet.public_subnets (expand) -->
<g id="edge28" class="edge">
<title>[root] module.sandbox_vpc.output.public_subnets (expand)&#45;&gt;[root] module.sandbox_vpc.aws_subnet.public_subnets (expand)</title>
<path fill="none" stroke="black" d="M819.69,-431.92C842.34,-411.75 882.85,-378.61 923.35,-360 1046.13,-303.58 1196.98,-271.23 1306.48,-253.63"/>
<polygon fill="black" stroke="black" points="1307.29,-257.05 1316.62,-252.03 1306.19,-250.14 1307.29,-257.05"/>
</g>
<!-- [root] module.sandbox_vpc.var.availability_zones (expand)&#45;&gt;[root] var.availability_zones -->
<g id="edge30" class="edge">
<title>[root] module.sandbox_vpc.var.availability_zones (expand)&#45;&gt;[root] var.availability_zones</title>
<path fill="none" stroke="black" d="M2074.45,-143.7C2080.74,-135.39 2088.4,-125.28 2095.32,-116.14"/>
<polygon fill="black" stroke="black" points="2098.16,-118.19 2101.4,-108.1 2092.57,-113.96 2098.16,-118.19"/>
</g>
<!-- [root] module.sandbox_vpc (expand) -->
<g id="node29" class="node">
<title>[root] module.sandbox_vpc (expand)</title>
<ellipse fill="none" stroke="black" cx="1966.35" cy="-18" rx="176.57" ry="18"/>
<text text-anchor="middle" x="1966.35" y="-14.3" font-family="Times-Roman" font-size="14.00">[root] module.sandbox_vpc (expand)</text>
</g>
<!-- [root] module.sandbox_vpc.var.availability_zones (expand)&#45;&gt;[root] module.sandbox_vpc (expand) -->
<g id="edge29" class="edge">
<title>[root] module.sandbox_vpc.var.availability_zones (expand)&#45;&gt;[root] module.sandbox_vpc (expand)</title>
<path fill="none" stroke="black" d="M2048.8,-143.97C2041.28,-133.66 2031.61,-120.18 2023.35,-108 2009.15,-87.05 1993.7,-62.83 1982.47,-44.96"/>
<polygon fill="black" stroke="black" points="1985.29,-42.86 1977.02,-36.24 1979.35,-46.57 1985.29,-42.86"/>
</g>
<!-- [root] module.sandbox_vpc.var.private_subnet_cidr_blocks (expand)&#45;&gt;[root] var.private_subnet_cidr_blocks -->
<g id="edge34" class="edge">
<title>[root] module.sandbox_vpc.var.private_subnet_cidr_blocks (expand)&#45;&gt;[root] var.private_subnet_cidr_blocks</title>
<path fill="none" stroke="black" d="M2673.35,-143.7C2673.35,-135.98 2673.35,-126.71 2673.35,-118.11"/>
<polygon fill="black" stroke="black" points="2676.85,-118.1 2673.35,-108.1 2669.85,-118.1 2676.85,-118.1"/>
</g>
<!-- [root] module.sandbox_vpc.var.private_subnet_cidr_blocks (expand)&#45;&gt;[root] module.sandbox_vpc (expand) -->
<g id="edge33" class="edge">
<title>[root] module.sandbox_vpc.var.private_subnet_cidr_blocks (expand)&#45;&gt;[root] module.sandbox_vpc (expand)</title>
<path fill="none" stroke="black" d="M2591.56,-144.57C2456.9,-117.53 2189.77,-63.87 2052.38,-36.28"/>
<polygon fill="black" stroke="black" points="2052.81,-32.79 2042.31,-34.26 2051.43,-39.66 2052.81,-32.79"/>
</g>
<!-- [root] module.sandbox_vpc.var.public_subnet_cidr_blocks (expand)&#45;&gt;[root] var.public_subnet_cidr_blocks -->
<g id="edge36" class="edge">
<title>[root] module.sandbox_vpc.var.public_subnet_cidr_blocks (expand)&#45;&gt;[root] var.public_subnet_cidr_blocks</title>
<path fill="none" stroke="black" d="M1541.1,-144.68C1596.4,-134.27 1668.27,-120.75 1726.02,-109.88"/>
<polygon fill="black" stroke="black" points="1726.72,-113.31 1735.9,-108.02 1725.43,-106.43 1726.72,-113.31"/>
</g>
<!-- [root] module.sandbox_vpc.var.public_subnet_cidr_blocks (expand)&#45;&gt;[root] module.sandbox_vpc (expand) -->
<g id="edge35" class="edge">
<title>[root] module.sandbox_vpc.var.public_subnet_cidr_blocks (expand)&#45;&gt;[root] module.sandbox_vpc (expand)</title>
<path fill="none" stroke="black" d="M1674.45,-149.13C1795.84,-140.52 1926.26,-127.02 1947.35,-108 1964.26,-92.75 1968.15,-66.47 1968.33,-46.41"/>
<polygon fill="black" stroke="black" points="1971.82,-46.22 1968.11,-36.29 1964.82,-46.37 1971.82,-46.22"/>
</g>
<!-- [root] module.sandbox_vpc.var.environment (expand)&#45;&gt;[root] var.environment -->
<g id="edge32" class="edge">
<title>[root] module.sandbox_vpc.var.environment (expand)&#45;&gt;[root] var.environment</title>
<path fill="none" stroke="black" d="M900.35,-71.7C900.35,-63.98 900.35,-54.71 900.35,-46.11"/>
<polygon fill="black" stroke="black" points="903.85,-46.1 900.35,-36.1 896.85,-46.1 903.85,-46.1"/>
</g>
<!-- [root] module.sandbox_vpc.var.environment (expand)&#45;&gt;[root] module.sandbox_vpc (expand) -->
<g id="edge31" class="edge">
<title>[root] module.sandbox_vpc.var.environment (expand)&#45;&gt;[root] module.sandbox_vpc (expand)</title>
<path fill="none" stroke="black" d="M1079.38,-77.24C1284.7,-63.76 1617.94,-41.88 1812.19,-29.12"/>
<polygon fill="black" stroke="black" points="1812.45,-32.61 1822.2,-28.47 1811.99,-25.63 1812.45,-32.61"/>
</g>
<!-- [root] module.sandbox_vpc.var.vpc_cidr_block (expand)&#45;&gt;[root] module.sandbox_vpc (expand) -->
<g id="edge37" class="edge">
<title>[root] module.sandbox_vpc.var.vpc_cidr_block (expand)&#45;&gt;[root] module.sandbox_vpc (expand)</title>
<path fill="none" stroke="black" d="M1549.79,-73.81C1639.54,-62 1763.38,-45.71 1852.68,-33.96"/>
<polygon fill="black" stroke="black" points="1853.39,-37.39 1862.84,-32.62 1852.47,-30.45 1853.39,-37.39"/>
</g>
<!-- [root] provider[&quot;registry.terraform.io/hashicorp/aws&quot;] (close) -->
<g id="node30" class="node">
<title>[root] provider[&quot;registry.terraform.io/hashicorp/aws&quot;] (close)</title>
<ellipse fill="none" stroke="black" cx="1814.35" cy="-594" rx="282.15" ry="18"/>
<text text-anchor="middle" x="1814.35" y="-590.3" font-family="Times-Roman" font-size="14.00">[root] provider[&quot;registry.terraform.io/hashicorp/aws&quot;] (close)</text>
</g>
<!-- [root] provider[&quot;registry.terraform.io/hashicorp/aws&quot;] (close)&#45;&gt;[root] module.sandbox_vpc.aws_route_table_association.private_rta (expand) -->
<g id="edge39" class="edge">
<title>[root] provider[&quot;registry.terraform.io/hashicorp/aws&quot;] (close)&#45;&gt;[root] module.sandbox_vpc.aws_route_table_association.private_rta (expand)</title>
<path fill="none" stroke="black" d="M1880.47,-576.41C1920.98,-566.25 1973.04,-553.19 2015.54,-542.52"/>
<polygon fill="black" stroke="black" points="2016.43,-545.91 2025.28,-540.08 2014.73,-539.12 2016.43,-545.91"/>
</g>
<!-- [root] provider[&quot;registry.terraform.io/hashicorp/aws&quot;] (close)&#45;&gt;[root] module.sandbox_vpc.aws_route_table_association.public_rta (expand) -->
<g id="edge40" class="edge">
<title>[root] provider[&quot;registry.terraform.io/hashicorp/aws&quot;] (close)&#45;&gt;[root] module.sandbox_vpc.aws_route_table_association.public_rta (expand)</title>
<path fill="none" stroke="black" d="M1734.37,-576.68C1683.69,-566.33 1617.94,-552.92 1564.85,-542.08"/>
<polygon fill="black" stroke="black" points="1565.25,-538.59 1554.75,-540.02 1563.85,-545.45 1565.25,-538.59"/>
</g>
<!-- [root] root -->
<g id="node31" class="node">
<title>[root] root</title>
<ellipse fill="none" stroke="black" cx="1471.35" cy="-738" rx="55.79" ry="18"/>
<text text-anchor="middle" x="1471.35" y="-734.3" font-family="Times-Roman" font-size="14.00">[root] root</text>
</g>
<!-- [root] root&#45;&gt;[root] meta.count&#45;boundary (EachMode fixup) -->
<g id="edge43" class="edge">
<title>[root] root&#45;&gt;[root] meta.count&#45;boundary (EachMode fixup)</title>
<path fill="none" stroke="black" d="M1444.97,-721.98C1428.1,-712.39 1405.94,-699.77 1387.1,-689.05"/>
<polygon fill="black" stroke="black" points="1388.57,-685.86 1378.15,-683.96 1385.11,-691.95 1388.57,-685.86"/>
</g>
<!-- [root] root&#45;&gt;[root] provider[&quot;registry.terraform.io/hashicorp/aws&quot;] (close) -->
<g id="edge44" class="edge">
<title>[root] root&#45;&gt;[root] provider[&quot;registry.terraform.io/hashicorp/aws&quot;] (close)</title>
<path fill="none" stroke="black" d="M1504.24,-723.38C1564.45,-698.46 1692.76,-645.34 1764.02,-615.84"/>
<polygon fill="black" stroke="black" points="1765.78,-618.9 1773.68,-611.84 1763.1,-612.43 1765.78,-618.9"/>
</g>
</g>
</svg>
